<?xml version="1.0" standalone="no"?><!DOCTYPE svg PUBLIC "-//W3C//DTD SVG 1.1//EN" "http://www.w3.org/Graphics/SVG/1.1/DTD/svg11.dtd"><svg class="icon" width="200px" height="200.00px" viewBox="0 0 1024 1024" version="1.1" xmlns="http://www.w3.org/2000/svg"><path fill="#333333" d="M763.2896 811.008c-32.3584 0-58.7776 26.4192-58.7776 58.7776 0 32.3584 26.4192 58.7776 58.7776 58.7776 32.5632 0 58.7776-26.4192 58.7776-58.7776 0-32.5632-26.4192-58.7776-58.7776-58.7776z m-413.696-0.8192c-32.768 0-59.5968 26.8288-59.5968 59.5968 0 32.9728 26.8288 59.5968 59.5968 59.5968 32.9728 0 59.5968-26.8288 59.5968-59.5968 0-32.9728-26.8288-59.5968-59.5968-59.5968z m549.6832-592.0768c-16.1792-18.2272-38.2976-28.2624-62.464-28.2624H242.688c-1.6384 0-3.072 0.2048-4.7104 0.4096l-1.4336-7.9872c-5.7344-45.4656-36.2496-81.1008-81.92-81.1008H117.1456c-19.2512 0-34.816 15.5648-34.816 34.816s15.5648 34.816 34.816 34.816h37.6832c10.4448 0 21.0944 10.24 22.528 21.504l28.672 165.6832 50.176 353.28c5.5296 45.6704 45.2608 76.5952 90.5216 76.5952h480.8704c19.2512 0 34.816-10.8544 34.816-29.9008 0-19.2512-15.5648-30.1056-34.816-30.1056H342.016c-10.0352 0-24.9856-14.5408-26.2144-25.3952l-2.6624-18.6368 1.2288-4.7104 501.76-37.888s18.8416-2.048 34.4064-19.8656c16.7936-14.9504 22.7328-35.0208 25.3952-56.5248l46.6944-266.6496v-0.2048c3.4816-30.1056-4.9152-59.1872-23.3472-79.872z m-31.3344 64.9216l-41.7792 271.36v0.2048c-1.4336 11.264-6.144 29.0816-15.9744 33.1776l-7.5776 1.6384-493.1584 39.1168c-1.2288 0-2.4576 0.2048-3.8912 0.4096l-39.936-282.0096-16.7936-97.0752h588.5952c4.096 0 16.9984 6.3488 19.8656 9.6256 4.3008 5.5296 11.4688 14.7456 10.6496 23.552z m0 0"  /></svg>