<?xml version="1.0" standalone="no"?><!DOCTYPE svg PUBLIC "-//W3C//DTD SVG 1.1//EN" "http://www.w3.org/Graphics/SVG/1.1/DTD/svg11.dtd"><svg class="icon" width="200px" height="200.00px" viewBox="0 0 1024 1024" version="1.1" xmlns="http://www.w3.org/2000/svg"><path fill="#ff0000" d="M523.0592 140.6976c92.16 0 166.912 75.9808 166.912 169.5744 0 93.3888-74.9568 169.5744-166.912 169.5744-92.16 0-166.912-75.9808-166.912-169.5744 0-93.5936 74.9568-169.5744 166.912-169.5744z m88.6784 479.4368c123.4944 0 221.7984 97.6896 221.7984 223.0272v16.1792c0 4.7104-0.8192 6.144-4.096 8.6016-4.096 3.2768-14.5408 9.4208-39.3216 14.336-45.056 9.0112-108.7488 9.0112-178.5856 9.0112h-160.3584c-71.2704 0-138.4448 0-182.6816-9.0112-23.7568-4.7104-33.5872-10.6496-37.4784-13.9264-2.4576-2.048-3.6864-3.2768-3.6864-9.0112v-16.1792c0-125.1328 100.352-223.0272 223.8464-223.0272h160.5632zM523.0592 82.3296c-123.6992 0-224.4608 102.1952-224.4608 227.7376S399.36 538.0096 523.0592 538.0096c123.6992 0 224.4608-102.1952 224.4608-227.7376S646.9632 82.3296 523.0592 82.3296m92.5696 477.5936h-168.1408c-156.2624 0-283.4432 129.024-283.4432 287.3344v16.9984c0 82.944 125.1328 82.944 283.4432 82.944h168.1408c152.1664 0 283.4432 0 283.4432-82.944v-16.9984c0-158.3104-127.1808-287.3344-283.4432-287.3344"  /></svg>