<?xml version="1.0" standalone="no"?><!DOCTYPE svg PUBLIC "-//W3C//DTD SVG 1.1//EN" "http://www.w3.org/Graphics/SVG/1.1/DTD/svg11.dtd"><svg class="icon" width="200px" height="200.00px" viewBox="0 0 1024 1024" version="1.1" xmlns="http://www.w3.org/2000/svg"><path fill="#ff0000" d="M907.6736 460.1856L584.9088 124.5184C564.8384 103.6288 538.0096 92.16 509.3376 92.16s-55.5008 11.4688-75.5712 32.3584L111.2064 460.1856c-33.3824 34.6112-29.0816 64.512-23.552 77.2096 3.8912 9.0112 17.2032 33.1776 55.296 33.1776h47.3088v258.2528c0 57.344 40.3456 111.4112 98.0992 113.664v0.2048h62.464c58.368 0 77.6192-38.2976 78.6432-94.6176l0.2048-0.2048v-178.5856c0-29.2864-4.3008-45.6704 25.6-45.6704h108.544c29.9008 0 25.3952 16.384 25.3952 45.6704V855.6544c0.8192 30.5152 8.192 87.04 78.6432 87.04h62.464v-0.2048c57.7536-2.2528 98.304-56.32 98.304-113.664V570.368h47.3088c38.0928 0 51.4048-24.3712 55.296-33.1776 5.3248-12.4928 9.6256-42.3936-23.552-77.0048z m-22.3232 57.1392h-109.9776v311.296c0 29.2864-18.8416 60.6208-48.9472 60.6208h-61.44c-17.8176-0.8192-21.9136-8.192-22.7328-21.504v-18.0224-180.4288c0-58.5728-18.8416-98.7136-78.6432-98.7136h-108.544c-59.8016 0-78.6432 40.1408-78.6432 98.7136V868.352c-0.8192 13.5168-5.5296 20.8896-25.6 20.8896h-58.5728c-29.9008 0-48.7424-31.3344-48.7424-60.6208v-311.296H133.3248c-1.024 0 0.8192 0.2048 0 0 1.8432-3.2768 12.0832-15.1552 17.2032-20.48L473.4976 161.3824c9.6256-10.0352 23.1424-16.1792 36.4544-15.9744 13.1072-0.2048 26.0096 6.144 35.6352 15.9744l322.56 335.2576"  /></svg>