<?xml version="1.0" standalone="no"?><!DOCTYPE svg PUBLIC "-//W3C//DTD SVG 1.1//EN" "http://www.w3.org/Graphics/SVG/1.1/DTD/svg11.dtd"><svg class="icon" width="200px" height="200.00px" viewBox="0 0 1024 1024" version="1.1" xmlns="http://www.w3.org/2000/svg"><path fill="#333333" d="M329.1136 459.3664h337.1008c20.2752 0 36.864-8.3968 36.864-28.672s-16.5888-32.768-36.864-32.768H329.1136c-20.2752 0-36.864 12.4928-36.864 32.768 0 20.48 16.5888 28.672 36.864 28.672zM471.04 558.8992h-141.9264c-20.2752 0-36.864 12.4928-36.864 32.768s16.384 28.672 36.6592 28.672H471.04c20.2752 0 36.864-8.3968 36.864-28.672-0.2048-20.48-16.5888-32.768-36.864-32.768zM666.2144 298.5984c20.2752 0 36.864-8.3968 36.864-28.672s-16.5888-32.768-36.864-32.768H329.1136c-20.2752 0-36.864 12.4928-36.864 32.768s16.384 28.4672 36.6592 28.672h337.3056z"  /><path fill="#333333" d="M840.704 661.7088V140.6976c-3.2768-29.4912-27.4432-52.6336-57.344-54.272H208.6912c-29.0816 3.2768-52.0192 26.8288-54.272 56.1152v735.8464c2.4576 30.1056 26.8288 53.8624 56.9344 55.7056h220.3648c20.2752 0 36.864-12.288 36.864-32.768 0-20.2752-16.384-34.816-36.864-34.816h-199.4752c-8.192-2.2528-14.7456-9.0112-16.5888-17.6128v-675.84c0-12.4928 9.8304-22.7328 22.1184-23.552h521.6256c10.0352 1.4336 18.0224 9.216 19.6608 19.0464v476.9792h-186.7776c-31.1296 1.2288-37.888 9.216-40.1408 40.1408v214.2208c0 20.2752 4.5056 30.3104 16.7936 34.4064 10.6496 3.4816 22.528-2.6624 29.2864-10.4448l230.4-230.4c2.048-2.048 3.6864-4.096 5.12-6.3488 4.3008-5.9392 6.7584-13.312 6.7584-21.2992 0.4096-1.4336 0.4096-2.8672 0.2048-4.096z m-235.3152 167.5264l2.048-105.2672c0.8192-11.0592 9.4208-20.0704 20.48-21.504h112.64l-135.168 126.7712z"  /></svg>